HIERARCHY
ROOT Hips
{
	OFFSET 0.00000 0.00000 0.00000
	CHANNELS 6 Xposition Yposition Zposition Zrotation Yrotation Xrotation 
	JOINT LHipJoint
	{
		OFFSET 0 0 0
		CHANNELS 3 Zrotation Yrotation Xrotation
		JOINT LeftUpLeg
		{
			OFFSET 1.77779 -1.88989 0.48267
			CHANNELS 3 Zrotation Yrotation Xrotation
			JOINT LeftLeg
			{
				OFFSET 2.53442 -6.96327 0.00000
				CHANNELS 3 Zrotation Yrotation Xrotation
				JOINT LeftFoot
				{
					OFFSET 2.71068 -7.44755 0.00000
					CHANNELS 3 Zrotation Yrotation Xrotation
					JOINT LeftToeBase
					{
						OFFSET 0.17992 -0.49431 2.22524
						CHANNELS 3 Zrotation Yrotation Xrotation
						End Site
						{
							OFFSET 0.00000 -0.00000 1.14687
						}
					}
				}
			}
		}
	}
	JOINT RHipJoint
	{
		OFFSET 0 0 0
		CHANNELS 3 Zrotation Yrotation Xrotation
		JOINT RightUpLeg
		{
			OFFSET -1.58469 -1.88989 0.48267
			CHANNELS 3 Zrotation Yrotation Xrotation
			JOINT RightLeg
			{
				OFFSET -2.60386 -7.15404 0.00000
				CHANNELS 3 Zrotation Yrotation Xrotation
				JOINT RightFoot
				{
					OFFSET -2.73334 -7.50979 0.00000
					CHANNELS 3 Zrotation Yrotation Xrotation
					JOINT RightToeBase
					{
						OFFSET -0.25618 -0.70384 2.21822
						CHANNELS 3 Zrotation Yrotation Xrotation
						End Site
						{
							OFFSET -0.00000 -0.00000 1.16381
						}
					}
				}
			}
		}
	}
	JOINT LowerBack
	{
		OFFSET 0 0 0
		CHANNELS 3 Zrotation Yrotation Xrotation
		JOINT Spine
		{
			OFFSET 0.03410 2.01612 -0.22230
			CHANNELS 3 Zrotation Yrotation Xrotation
			JOINT Spine1
			{
				OFFSET 0.03465 2.03012 0.00937
				CHANNELS 3 Zrotation Yrotation Xrotation
				JOINT Neck
				{
					OFFSET 0 0 0
					CHANNELS 3 Zrotation Yrotation Xrotation
					JOINT Neck1
					{
						OFFSET -0.00219 1.70459 0.20857
						CHANNELS 3 Zrotation Yrotation Xrotation
						JOINT Head
						{
							OFFSET 0.02518 1.72339 -0.22179
							CHANNELS 3 Zrotation Yrotation Xrotation
							End Site
							{
								OFFSET 0.00282 1.74122 -0.09823
							}
						}
					}
				}
				JOINT LeftShoulder
				{
					OFFSET 0 0 0
					CHANNELS 3 Zrotation Yrotation Xrotation
					JOINT LeftArm
					{
						OFFSET 3.36358 1.00547 -0.37661
						CHANNELS 3 Zrotation Yrotation Xrotation
						JOINT LeftForeArm
						{
							OFFSET 5.06507 -0.00000 0.00000
							CHANNELS 3 Zrotation Yrotation Xrotation
							JOINT LeftHand
							{
								OFFSET 3.60196 -0.00000 0.00000
								CHANNELS 3 Zrotation Yrotation Xrotation
								JOINT LeftFingerBase
								{
									OFFSET 0 0 0
									CHANNELS 3 Zrotation Yrotation Xrotation
									JOINT LeftHandIndex1
									{
										OFFSET 0.45035 -0.00000 0.00000
										CHANNELS 3 Zrotation Yrotation Xrotation
										End Site
										{
											OFFSET 0.36308 -0.00000 0.00000
										}
									}
								}
								JOINT LThumb
								{
									OFFSET 0 0 0
									CHANNELS 3 Zrotation Yrotation Xrotation
									End Site
									{
										OFFSET 0.36862 -0.00000 0.36862
									}
								}
							}
						}
					}
				}
				JOINT RightShoulder
				{
					OFFSET 0 0 0
					CHANNELS 3 Zrotation Yrotation Xrotation
					JOINT RightArm
					{
						OFFSET -3.50159 0.80383 -0.71526
						CHANNELS 3 Zrotation Yrotation Xrotation
						JOINT RightForeArm
						{
							OFFSET -5.36394 -0.00000 0.00000
							CHANNELS 3 Zrotation Yrotation Xrotation
							JOINT RightHand
							{
								OFFSET -3.58035 -0.00000 0.00000
								CHANNELS 3 Zrotation Yrotation Xrotation
								JOINT RightFingerBase
								{
									OFFSET 0 0 0
									CHANNELS 3 Zrotation Yrotation Xrotation
									JOINT RightHandIndex1
									{
										OFFSET -0.66375 -0.00000 0.00000
										CHANNELS 3 Zrotation Yrotation Xrotation
										End Site
										{
											OFFSET -0.53513 -0.00000 0.00000
										}
									}
								}
								JOINT RThumb
								{
									OFFSET 0 0 0
									CHANNELS 3 Zrotation Yrotation Xrotation
									End Site
									{
										OFFSET -0.54330 -0.00000 0.54330
									}
								}
							}
						}
					}
				}
			}
		}
	}
}
MOTION
Frames: 5
Frame Time: .0083333
0.3959 17.9359 13.5508 -0.1906 -1.6445 -5.1501 0.0000 0.0000 0.0000 -24.3484 -3.8231 -9.6978 2.2860 9.4380 27.1753 0.2464 -5.0267 -8.9761 0.0568 1.5379 4.2302 0.0000 0.0000 0.0000 19.4464 -0.5225 -13.0029 -14.0424 -19.1268 72.3339 0.0061 -2.4120 1.2205 -0.5027 -4.5450 12.6153 -0.2286 1.7428 10.7967 0.3929 2.3065 1.3836 0.2013 1.1459 -4.6314 -1.4537 -3.4502 -15.9573 1.4600 -4.7553 20.3424 0.1473 -2.1773 9.0918 -0.0000 -0.0000 0.0000 -86.7069 4.1012 19.8255 10.3008 -17.2087 -1.5628 -0.0000 0.0000 -3.0681 33.3484 14.8260 9.5586 -7.1250 0.0000 -0.0000 5.5955 47.4831 0.3439 -0.0000 -0.0000 0.0000 88.2933 5.4294 7.8245 -14.1123 22.8950 -2.8716 0.0000 0.0000 6.5461 -20.3754 22.2414 -8.0023 7.1250 -0.0000 -0.0000 5.3288 -6.4969 4.7126
0.4021 17.9346 13.7200 -0.1216 -1.3044 -5.1143 0.0000 0.0000 0.0000 -24.5507 -3.6624 -9.2016 2.2630 9.3938 27.0350 0.2567 -5.1080 -9.1576 0.0234 0.9869 2.7128 0.0000 0.0000 0.0000 19.2938 -0.5481 -14.4920 -14.2680 -19.1933 73.0212 0.0102 -1.8412 -0.2088 -0.3367 -3.7291 10.3158 -0.3955 1.5611 10.7260 0.4264 2.0477 1.3594 0.3694 1.0215 -4.6226 -1.3044 -3.3343 -15.6735 1.2487 -4.5844 20.2316 0.0785 -2.1126 8.9895 -0.0000 -0.0000 0.0000 -86.5565 3.7292 20.6267 10.6627 -17.7694 -1.6715 -0.0000 0.0000 -4.0158 31.6629 16.7143 10.0578 -7.1250 0.0000 -0.0000 3.7937 49.3753 0.4098 -0.0000 -0.0000 0.0000 88.4243 5.3132 7.3806 -13.8733 22.5533 -2.7793 0.0000 0.0000 7.2555 -20.1572 21.9226 -7.8038 7.1250 -0.0000 -0.0000 5.4398 -6.8615 4.7731
0.4138 17.9254 13.8968 0.1637 -0.8604 -5.2035 0.0000 0.0000 0.0000 -25.0775 -3.3913 -8.6301 2.2596 9.3870 27.0137 0.2696 -5.0526 -9.3585 0.0017 -0.2658 -0.7302 0.0000 0.0000 0.0000 18.7783 -0.8546 -15.7443 -14.4247 -19.2378 73.4975 -0.0063 -0.9442 -2.1450 -0.3742 -3.9290 10.8769 -0.6988 1.4003 10.5832 0.3968 1.7983 1.4423 0.5503 0.9031 -4.4620 -1.3895 -3.2861 -15.7167 1.2942 -4.5106 20.4310 0.1146 -2.0776 9.0685 -0.0000 0.0000 0.0000 -86.3895 3.5357 21.6651 11.1283 -18.4846 -1.8164 -0.0000 0.0000 -5.2317 30.9101 18.3815 10.6918 -7.1250 0.0000 -0.0000 2.8408 51.1297 0.4293 -0.0000 0.0000 0.0000 88.5932 4.9408 6.8219 -13.8453 22.5131 -2.7686 0.0000 0.0000 7.6971 -20.0353 22.4882 -7.9406 7.1250 -0.0000 -0.0000 5.5630 -6.2937 4.9436
0.4229 17.9234 14.0610 0.4620 -0.5390 -5.3276 0.0000 0.0000 0.0000 -25.5728 -3.2603 -8.0032 2.2787 9.4239 27.1306 0.2977 -4.9890 -9.7914 0.0064 -0.5168 -1.4201 0.0000 0.0000 0.0000 18.3090 -0.9815 -16.9746 -14.5194 -19.2641 73.7845 0.0040 -1.2809 -1.1166 -0.3435 -3.7663 10.4200 -1.0282 1.2687 10.7309 0.3664 1.5829 1.4364 0.7316 0.8022 -4.5547 -1.5920 -3.2185 -15.6253 1.4250 -4.4003 20.5956 0.2065 -2.0269 9.1152 0.0000 0.0000 0.0000 -86.2018 3.3317 21.7583 11.1570 -18.5285 -1.8255 -0.0000 0.0000 -5.1959 30.2148 17.2382 9.7916 -7.1250 0.0000 -0.0000 2.2838 49.7175 0.2658 0.0000 0.0000 0.0000 88.7902 4.5536 6.2552 -13.8293 22.4902 -2.7625 0.0000 0.0000 7.9824 -19.8819 22.6944 -7.9429 7.1250 -0.0000 -0.0000 5.6763 -6.1040 5.0660
0.4174 17.9213 14.2100 -0.0496 -0.4426 -5.3748 0.0000 0.0000 0.0000 -25.0086 -3.1175 -7.5332 2.3131 9.4898 27.3399 0.3373 -5.1250 -10.4037 0.0051 -0.4621 -1.2696 0.0000 0.0000 0.0000 19.0331 -0.6211 -18.2815 -14.5499 -19.2724 73.8772 0.0022 -1.3734 -1.6677 -0.4020 -4.0708 11.2758 -0.7059 1.1784 11.0920 0.5763 1.5090 1.3436 0.7716 0.7627 -4.8484 -1.5218 -3.2582 -15.3072 1.2105 -4.4258 20.4992 0.1250 -2.0603 9.0167 0.0000 0.0000 0.0000 -85.9124 2.9027 22.0475 10.9785 -18.2552 -1.7692 -0.0000 0.0000 -5.3842 29.8233 15.2910 8.5967 -7.1250 0.0000 -0.0000 2.1234 47.4600 0.1290 0.0000 0.0000 0.0000 88.9216 4.1643 5.9899 -13.7431 22.3662 -2.7296 0.0000 0.0000 7.7122 -19.3885 21.4149 -7.3222 7.1250 -0.0000 -0.0000 5.8869 -7.5019 5.0956
